<?xml version="1.0" standalone="no"?>
<!DOCTYPE svg PUBLIC "-//W3C//DTD SVG 20010904//EN"
 "http://www.w3.org/TR/2001/REC-SVG-20010904/DTD/svg10.dtd">
<svg version="1.0" xmlns="http://www.w3.org/2000/svg"
 width="1300.000000pt" height="1300.000000pt" viewBox="0 0 1300.000000 1300.000000"
 preserveAspectRatio="xMidYMid meet">
<metadata>
Created by potrace 1.14, written by Peter Selinger 2001-2017
</metadata>
<g transform="translate(0.000000,1300.000000) scale(0.100000,-0.100000)"
fill="#000000" stroke="none">
<path d="M6125 12364 c-22 -2 -96 -8 -165 -14 -69 -6 -204 -22 -300 -36 -2201
-313 -4039 -1854 -4741 -3974 -133 -403 -222 -831 -271 -1300 -18 -170 -18
-910 0 -1080 104 -1003 413 -1882 947 -2695 917 -1397 2410 -2344 4065 -2579
322 -46 405 -51 840 -51 435 0 518 5 840 51 2200 313 4039 1854 4741 3974 133
403 222 831 271 1300 18 170 18 910 0 1080 -104 1003 -413 1882 -947 2695
-903 1376 -2370 2319 -3995 2569 -327 50 -433 58 -850 61 -217 2 -413 1 -435
-1z"/>
</g>
</svg>
